<?xml version="1.0" encoding="utf-8" ?><svg xmlns="http://www.w3.org/2000/svg" xmlns:xlink="http://www.w3.org/1999/xlink" width="870" height="823" viewBox="0 0 870 823"><clipPath id="cl_3"><rect width="870" height="823"/></clipPath><g clip-path="url(#cl_3)"><path fill="#283542" transform="translate(-218 -211)" d="M766.295 965.464C709.877 990.92 656.334 1001.09 594.424 998.454C493.446 993.375 398.574 948.568 330.508 873.806C259.428 796.537 222.087 694.119 226.753 589.233C231.114 490.392 278.939 391.546 352.253 325.845C431.982 254.395 529.413 221.046 635.616 225.82C635.565 238.496 635.341 251.63 635.672 264.268L635.43 376.7L635.449 419.864C635.47 426.29 635.202 436.136 635.649 442.348C636.305 450.607 635.921 462.81 635.654 471.178C622.873 469.745 612.643 468.833 599.582 470.042C562.156 473.195 527.6 491.359 503.781 520.398C479.682 549.893 468.375 587.798 472.379 625.675C476.418 662.705 494.907 696.644 523.827 720.121C552.758 743.321 589.799 753.922 626.624 749.539C670.964 744.569 697.243 723.857 724.049 690.351C724.705 713.399 724.155 739.15 724.247 762.522C709.868 762.507 670.499 761.222 658.776 764.042C652.202 765.579 646.098 768.682 640.982 773.086C626.549 785.556 619.46 809.85 630.326 825.69C639.805 839.507 659.579 857.23 671.809 869.379L730.34 928.628C741.145 939.578 756.404 954.14 766.295 965.464Z"/><path fill="#92979F" transform="translate(-218 -211)" d="M521.038 276.216L521.46 276.973C513.86 279.653 506.111 281.856 498.509 284.559C413.245 314.87 346.788 378.898 307.929 460.074C266.996 545.025 261.769 642.826 293.414 731.656C309.884 778.037 335.344 820.713 368.336 857.237C375.013 864.61 385.835 875.811 393.789 881.788L392.862 882.666C335.647 833.912 294.36 769.126 274.331 696.674C249.866 608.707 261.822 514.596 307.506 435.542C354.996 351.934 429.626 301.442 521.038 276.216Z"/><path fill="#92979F" transform="translate(-218 -211)" d="M429.074 865.179C427.462 863.675 424.558 861.658 422.715 860.19C337.537 792.342 288.049 681.618 300.971 572.693C310.315 493.931 349.961 418.707 412.428 369.143C448.246 341.022 489.863 321.206 534.272 311.128C539.26 309.969 551.316 306.857 555.999 307.392L555.872 307.81C539.799 311.104 526.753 314.672 511.333 320.405C453.993 341.285 404.483 379.332 369.545 429.364C322.003 497.12 299.269 585.23 313.853 667.225C325.094 730.458 354.491 789.053 398.46 835.865C408.371 846.321 418.978 856.663 430.805 864.921L429.074 865.179Z"/><path fill="#92979F" transform="translate(-218 -211)" d="M436.259 824.11C385.706 780.109 351.715 720.147 339.925 654.172C327.332 584.751 344.98 510.924 385.164 453.23C425.028 395.597 486.473 356.499 555.566 344.802L556.43 345.654C512.576 354.822 468.3 379.766 435.825 410.321C366.036 475.983 331.803 576.552 351.621 670.774C361.929 719.444 384.389 764.713 416.908 802.363C422.026 808.251 430.803 818.058 436.841 822.742L436.259 824.11Z"/><path fill="#92979F" transform="translate(-218 -211)" d="M474.978 808.934C423.762 770.715 388.716 714.701 376.745 651.928C352.056 526.389 439.876 400.469 565.527 380.478C567.972 380.089 577.391 377.949 579.312 379.243C572.093 380.817 564.126 381.725 557.224 383.645C509.311 397.283 466.911 425.668 436.045 464.77C395.503 516.401 375.736 579.919 383.766 645.463C391.816 709.787 424.913 768.338 475.872 808.407L474.978 808.934Z"/><path fill="#92979F" transform="translate(-218 -211)" d="M473.78 760.656C470.807 757.699 467.904 754.673 465.073 751.58C428.477 711.122 406.347 656.122 409.233 601.259C412.17 548.498 435.933 499.062 475.3 463.813C500.145 441.612 530.181 426.026 562.638 418.494C570.149 416.746 576.765 415.038 584.49 415.45C577.017 415.936 570.815 418.076 563.69 420.221C533.403 429.03 505.699 445.043 482.947 466.889C442.644 504.642 419.037 556.892 417.344 612.089C416.432 667.076 437.126 720.227 474.98 760.12L473.78 760.656Z"/><path fill="#59636E" transform="translate(-218 -211)" d="M474.98 760.12C484.298 767.922 492.423 776.25 502.48 783.283C504.387 784.616 519.767 794.147 519.904 794.377C514.011 796.539 478.834 766.227 473.78 760.656L474.98 760.12Z"/><path fill="#59636E" transform="translate(-218 -211)" d="M436.841 822.742C440.461 825.972 467.46 847.575 467.268 847.057C461.699 845.376 441.078 828.81 436.259 824.11L436.841 822.742Z"/><path fill="#59636E" transform="translate(-218 -211)" d="M393.789 881.788C401.288 887.688 409.179 893.725 416.411 899.898C411.52 898.303 396.566 886.676 392.862 882.666L393.789 881.788Z"/><path fill="#59636E" transform="translate(-218 -211)" d="M430.805 864.921C435.513 868.195 440.226 871.269 444.395 875.214L444.417 875.698C438.98 872.819 433.966 868.913 429.074 865.179L430.805 864.921Z"/><path fill="#59636E" transform="translate(-218 -211)" d="M475.872 808.407C480.502 811.472 484.16 813.751 488.277 817.56L487.896 817.688C484.157 815.491 478.066 811.969 474.978 808.934L475.872 808.407Z"/><path fill="#757E87" transform="translate(-218 -211)" d="M555.566 344.802C560.484 343.354 566.175 342.536 571.306 342.333L571.786 342.608C567.704 343.821 560.787 345.088 556.43 345.654L555.566 344.802Z"/><path fill="#59636E" transform="translate(-218 -211)" d="M534.115 273.169C529.303 275.704 527.067 276.432 521.46 276.973L521.038 276.216C525.853 274.68 529.1 274.092 534.115 273.169Z"/><defs><linearGradient id="gradient_0" gradientUnits="userSpaceOnUse" x1="864.31201" y1="1015.4398" x2="848.63306" y2="273.88956"><stop offset="0" stop-color="#31C2AB"/><stop offset="1" stop-color="#0875DD"/></linearGradient></defs><path fill="url(#gradient_0)" transform="translate(-218 -211)" d="M635.616 225.82C692.961 228.304 748.894 244.385 798.802 272.739C881.833 319.591 942.592 397.802 967.46 489.84C982.706 546.61 979.672 591.893 979.671 649.939L979.622 789.949L1031.93 789.908C1043.24 789.9 1064.33 787.55 1072.36 795.898C1076.09 799.71 1078.02 804.925 1077.68 810.245C1077.42 814.633 1075.46 819.113 1072.54 822.318C1061.67 834.258 1049.71 846.058 1038.33 857.499L977.688 918.699L916.64 980.524C906.14 991.183 895.67 1001.94 884.908 1012.32C880.042 1016.88 873.253 1017.27 866.989 1016.77C862.935 1016.45 857.5 1012.29 854.626 1009.42C843.882 998.697 833.452 987.616 822.78 976.814L744.107 896.897L697.227 849.355C688.203 840.3 678.61 831.298 670.434 821.602C660.274 809.553 667.506 790.451 684.098 790.256C713.397 789.912 743.504 789.313 772.777 790.02L772.641 650.242L772.672 608.88C772.713 590.162 773.193 573.179 768.859 554.702C762.779 528.241 749.353 504.034 730.125 484.866C706.994 461.93 668.952 441.14 635.649 442.348C635.202 436.136 635.47 426.29 635.449 419.864L635.43 376.7L635.672 264.268C635.341 251.63 635.565 238.496 635.616 225.82Z"/><path fill="#0773DE" transform="translate(-218 -211)" d="M635.616 225.82C692.961 228.304 748.894 244.385 798.802 272.739C801.211 281.575 805.488 278.694 807.834 283.626C807.124 283.72 806.874 283.981 806.292 284.37C798.353 284.403 798.785 280.491 791.979 279.106C785.781 281.807 787.452 279.084 781.351 277.657C780.753 277.304 777.122 279.976 776.852 279.925C764.179 277.558 752.893 279.217 740.248 279.526L651.091 281.827C645.064 281.984 645.311 279.4 641.014 279.056C635.902 281.812 639.022 288.616 637.071 292.924C637.093 287.968 637.618 267.886 635.672 264.268C635.341 251.63 635.565 238.496 635.616 225.82Z"/><path fill="#0773DE" transform="translate(-218 -211)" d="M807.834 283.626C812.521 284.414 811.276 284.107 815.189 287.387L814.392 288.267C812.235 287.612 809.064 285.351 807.834 283.626Z"/><path fill="#28B3B4" transform="translate(-218 -211)" d="M605.777 496.399C668.204 493.197 721.457 541.101 724.857 603.518C728.256 665.935 680.521 719.339 618.115 722.935C555.43 726.548 501.734 678.552 498.319 615.856C494.905 553.159 543.07 499.616 605.777 496.399ZM616.285 630.829C623.888 629.274 630.065 623.749 632.456 616.366C634.847 608.984 633.082 600.886 627.835 595.169C622.588 589.452 614.671 587 607.111 588.75C595.629 591.409 588.417 602.803 590.928 614.318C593.438 625.833 604.739 633.192 616.285 630.829Z"/></g></svg>
